<svg id="svg" version="1.1" xmlns="http://www.w3.org/2000/svg" xmlns:xlink="http://www.w3.org/1999/xlink" width="400"
    height="400" viewBox="0, 0, 400,400">
    <path id="path0"
        d="M165.297 8.158 C 20.333 34.793,-43.786 207.519,48.482 322.840 C 143.873 442.064,335.235 407.785,384.606 262.629 C 431.958 123.408,309.759 -18.384,165.297 8.158 M237.443 53.147 C 341.809 79.340,386.256 206.844,320.713 292.023 C 252.227 381.026,114.990 368.713,64.959 269.075 C 6.454 152.561,111.179 21.458,237.443 53.147 M121.594 128.311 C 120.105 133.584,118.352 144.064,117.701 151.598 C 116.888 160.992,115.251 167.305,112.490 171.689 C 91.173 205.535,104.732 257.039,139.388 273.866 C 164.916 286.261,232.539 286.904,258.667 275.000 C 295.119 258.392,309.671 204.080,286.639 170.603 C 283.770 166.433,281.885 162.559,282.451 161.993 C 283.806 160.638,279.895 131.497,277.396 124.326 C 274.464 115.917,261.628 118.599,238.068 132.544 C 226.667 139.292,175.004 140.927,165.981 134.825 C 140.377 117.509,125.272 115.292,121.594 128.311 M256.944 201.994 C 280.158 219.196,275.765 256.614,249.371 266.489 C 220.726 277.206,163.176 275.249,143.157 262.876 C 122.024 249.816,124.906 209.947,147.675 200.373 C 158.699 195.738,250.336 197.098,256.944 201.994 M157.908 218.182 C 148.412 227.677,154.035 252.055,165.721 252.055 C 175.488 252.055,182.337 238.516,178.887 226.024 C 175.575 214.028,165.738 210.351,157.908 218.182 M226.961 216.492 C 214.791 225.016,220.355 252.055,234.279 252.055 C 245.942 252.055,251.415 228.586,242.096 218.532 C 237.004 213.036,232.720 212.459,226.961 216.492 "
        stroke="none" fill="#000000" fill-rule="evenodd"></path>
</svg>