<svg version="1.1" viewBox="0 0 980.46033 829.68884" xmlns="http://www.w3.org/2000/svg">
   <path style="fill:currentColor"
      d="m 429.30893,828.86493 c -9.9,-0.3832 -28.125,-0.7544 -40.5,-0.825 -224.33382,-1.2797 -359.305894,-111.225 -384.3970186,-313.1213 -14.23586,-114.5491 5.8150546,-200.2756 62.5402236,-267.3868 11.678969,-13.8174 11.096189,-12.854 9.813559,-16.2226 -5.43589,-14.2766 -0.0408,-94.4177 9.65312,-143.390496 5.18859,-26.2124 16.748616,-65.8742 24.264446,-83.2499703 2.38388,-5.51125998 2.3869,-5.51187998 15.74468,-3.23858 58.36136,9.9322603 126.10429,40.7745503 208.20285,94.7915503 l 21.32187,14.028796 7.17813,-1.6659 c 60.709,-14.089096 187.65773,-14.598996 249.7246,-1.0031 l 11.54645,2.5292 14.95355,-9.7793 C 704.16972,57.944234 787.58257,17.438824 829.30893,8.0897137 c 25.19414,-5.64493 37.716,-8.28422998 37.97474,-8.00411996 2.64433,2.86275996 16.2217,45.18434026 21.55312,67.18264026 11.99194,49.480496 20.7041,146.043896 14.67351,162.637396 -1.88405,5.184 -2.71763,3.5792 9.15543,17.6262 109.72357,129.8134 82.10843,389.3098 -52.8568,496.6891 -60.83928,48.4041 -109.83887,67.7602 -203,80.1902 -30.00164,4.0029 -168.89118,6.722 -227.5,4.4538 z m 124,-48.9503 c 214.33669,-11.2103 291.83952,-64.8514 296.18687,-204.996 1.73165,-55.8225 -12.9253,-94.2683 -50.15368,-131.5552 -41.98964,-42.0556 -79.70622,-50.0912 -194.53319,-41.4457 -15.125,1.1388 -36.95,2.7612 -48.5,3.6054 -48.28091,3.5287 -98.15571,3.0253 -161.5,-1.6301 -98.42861,-7.234 -123.15722,-6.2341 -161.65132,6.5364 -64.39082,21.3617 -104.15774,86.2833 -100.97559,164.8478 5.78197,142.7515 79.67075,193.1311 300.62691,204.9766 14.6761,0.7868 103.76641,0.536 120.5,-0.3392 z M 309.08468,673.47413 c -31.53362,-7.1909 -55.45348,-43.3552 -57.91118,-87.5555 -4.9569,-89.1467 75.25244,-138.0975 119.6158,-73 45.5322,66.8127 3.767,175.4858 -61.70462,160.5555 z m 338.97475,-0.072 c -50.23983,-10.9137 -75.11933,-92.3672 -45.65883,-149.4834 24.04958,-46.6258 72.6589,-54.7964 102.54578,-17.2367 52.02298,65.3788 12.31469,181.753 -56.88695,166.7202 z" />
</svg>