<svg viewBox="0 0 28 28" fill="none" xmlns="http://www.w3.org/2000/svg">
    <path
        d="M7.26485 12.8334H20.7363C21.742 12.8334 22.2763 11.6434 21.6078 10.8909L14.8727 3.31336C14.7634 3.19005 14.6293 3.09133 14.479 3.02372C14.3288 2.9561 14.1659 2.92114 14.0012 2.92114C13.8364 2.92114 13.6736 2.9561 13.5233 3.02372C13.3731 3.09133 13.2389 3.19005 13.1297 3.31336L6.39218 10.8909C5.72368 11.6434 6.25802 12.8334 7.26485 12.8334ZM13.1285 24.6855C13.2378 24.8088 13.3719 24.9076 13.5222 24.9752C13.6724 25.0428 13.8353 25.0777 14 25.0777C14.1648 25.0777 14.3276 25.0428 14.4779 24.9752C14.6281 24.9076 14.7623 24.8088 14.8715 24.6855L21.6067 17.108C22.2763 16.3567 21.742 15.1667 20.7352 15.1667H7.26485C6.25918 15.1667 5.72485 16.3567 6.39335 17.1092L13.1285 24.6855Z"
        fill="currentColor" />
</svg>