<svg viewBox="0 0 40 40" fill="none" xmlns="http://www.w3.org/2000/svg">
  <path
    d="M14.3441 28.4861C13.9688 28.8614 13.4598 29.0722 12.9291 29.0722C12.3984 29.0722 11.8894 28.8614 11.5141 28.4861C11.1388 28.1108 10.928 27.6018 10.928 27.0711C10.928 26.8083 10.9797 26.5481 11.0803 26.3053C11.1809 26.0625 11.3283 25.8419 11.5141 25.6561L25.6561 11.5161C26.0311 11.1408 26.5398 10.9299 27.0704 10.9297C27.6009 10.9295 28.1098 11.1401 28.4851 11.5151C28.8604 11.8901 29.0713 12.3988 29.0715 12.9294C29.0717 13.4599 28.8611 13.9688 28.4861 14.3441L14.3441 28.4841V28.4861Z"
    fill="currentColor" />
  <path
    d="M11.5141 14.3441C11.3283 14.1583 11.1809 13.9377 11.0803 13.6949C10.9797 13.4521 10.928 13.1919 10.928 12.9291C10.928 12.6663 10.9797 12.4061 11.0803 12.1633C11.1809 11.9205 11.3283 11.6999 11.5141 11.5141C11.6999 11.3283 11.9205 11.1809 12.1633 11.0803C12.4061 10.9797 12.6663 10.928 12.9291 10.928C13.1919 10.928 13.4521 10.9797 13.6949 11.0803C13.9377 11.1809 14.1583 11.3283 14.3441 11.5141L28.4841 25.6561C28.8594 26.0311 29.0703 26.5398 29.0705 27.0704C29.0707 27.6009 28.8601 28.1098 28.4851 28.4851C28.1101 28.8604 27.6013 29.0713 27.0708 29.0715C26.5403 29.0717 26.0314 28.8611 25.6561 28.4861L11.5161 14.3441H11.5141Z"
    fill="currentColor" />
</svg>