<svg viewBox="0 0 24 24" fill="none" xmlns="http://www.w3.org/2000/svg">
  <path
    d="M20.2836 8.27584L14.3328 7.411L11.6726 2.01803C11.6 1.87037 11.4805 1.75084 11.3328 1.67818C10.9625 1.49537 10.5125 1.64771 10.3273 2.01803L7.66717 7.411L1.71639 8.27584C1.55233 8.29928 1.40233 8.37662 1.28748 8.49381C1.14864 8.63651 1.07214 8.8285 1.07477 9.02758C1.07741 9.22666 1.15897 9.41655 1.30155 9.55553L5.60701 13.7532L4.58983 19.6805C4.56597 19.8184 4.58123 19.9602 4.63387 20.0899C4.68651 20.2195 4.77442 20.3318 4.88764 20.4141C5.00086 20.4963 5.13486 20.5452 5.27444 20.5551C5.41401 20.5651 5.55358 20.5357 5.67733 20.4704L11 17.6719L16.3226 20.4704C16.468 20.5477 16.6367 20.5735 16.7984 20.5454C17.2062 20.4751 17.4805 20.0883 17.4101 19.6805L16.393 13.7532L20.6984 9.55553C20.8156 9.44068 20.893 9.29068 20.9164 9.12662C20.9797 8.71646 20.6937 8.33678 20.2836 8.27584Z"
    fill="currentColor" />
</svg>