<svg viewBox="0 0 40 40" fill="none" xmlns="http://www.w3.org/2000/svg">
  <path
    d="M23.7501 32.5H18.7501C18.4185 32.5 18.1006 32.6317 17.8662 32.8661C17.6318 33.1005 17.5001 33.4185 17.5001 33.75V36.25C17.5001 36.5815 17.6318 36.8995 17.8662 37.1339C18.1006 37.3683 18.4185 37.5 18.7501 37.5H23.7501C24.0816 37.5 24.3995 37.3683 24.6339 37.1339C24.8684 36.8995 25.0001 36.5815 25.0001 36.25V33.75C25.0001 33.4185 24.8684 33.1005 24.6339 32.8661C24.3995 32.6317 24.0816 32.5 23.7501 32.5ZM13.7501 27.5H10.0001V3.75C10.0001 3.41848 9.86836 3.10054 9.63394 2.86612C9.39952 2.6317 9.08158 2.5 8.75006 2.5H6.25006C5.91854 2.5 5.6006 2.6317 5.36618 2.86612C5.13176 3.10054 5.00006 3.41848 5.00006 3.75V27.5H1.25006C0.141466 27.5 -0.419471 28.8469 0.368029 29.6336L6.61803 37.1336C6.85243 37.3678 7.17024 37.4994 7.50162 37.4994C7.833 37.4994 8.15082 37.3678 8.38522 37.1336L14.6352 29.6336C15.418 28.8484 14.861 27.5 13.7501 27.5ZM33.7501 12.5H18.7501C18.4185 12.5 18.1006 12.6317 17.8662 12.8661C17.6318 13.1005 17.5001 13.4185 17.5001 13.75V16.25C17.5001 16.5815 17.6318 16.8995 17.8662 17.1339C18.1006 17.3683 18.4185 17.5 18.7501 17.5H33.7501C34.0816 17.5 34.3995 17.3683 34.6339 17.1339C34.8684 16.8995 35.0001 16.5815 35.0001 16.25V13.75C35.0001 13.4185 34.8684 13.1005 34.6339 12.8661C34.3995 12.6317 34.0816 12.5 33.7501 12.5ZM28.7501 22.5H18.7501C18.4185 22.5 18.1006 22.6317 17.8662 22.8661C17.6318 23.1005 17.5001 23.4185 17.5001 23.75V26.25C17.5001 26.5815 17.6318 26.8995 17.8662 27.1339C18.1006 27.3683 18.4185 27.5 18.7501 27.5H28.7501C29.0816 27.5 29.3995 27.3683 29.6339 27.1339C29.8684 26.8995 30.0001 26.5815 30.0001 26.25V23.75C30.0001 23.4185 29.8684 23.1005 29.6339 22.8661C29.3995 22.6317 29.0816 22.5 28.7501 22.5ZM38.7501 2.5H18.7501C18.4185 2.5 18.1006 2.6317 17.8662 2.86612C17.6318 3.10054 17.5001 3.41848 17.5001 3.75V6.25C17.5001 6.58152 17.6318 6.89946 17.8662 7.13388C18.1006 7.3683 18.4185 7.5 18.7501 7.5H38.7501C39.0816 7.5 39.3995 7.3683 39.6339 7.13388C39.8684 6.89946 40.0001 6.58152 40.0001 6.25V3.75C40.0001 3.41848 39.8684 3.10054 39.6339 2.86612C39.3995 2.6317 39.0816 2.5 38.7501 2.5V2.5Z"
    fill="currentColor" />
</svg>