<svg viewBox="0 0 24 24" fill="none" xmlns="http://www.w3.org/2000/svg">
  <path
    d="M12 2V8C11.9999 8.26273 12.0515 8.52291 12.152 8.76567C12.2524 9.00844 12.3997 9.22904 12.5854 9.41486C12.7712 9.60068 12.9917 9.74809 13.2344 9.84866C13.4771 9.94924 13.7373 10.001 14 10.001H20V20.002C20 20.5324 19.7893 21.0411 19.4142 21.4162C19.0391 21.7913 18.5304 22.002 18 22.002H9V18.331C9.61683 17.5689 9.9679 16.6262 9.99981 15.6463C10.0317 14.6664 9.74271 13.7029 9.17676 12.9023C8.61081 12.1017 7.79887 11.5078 6.86443 11.211C5.93 10.9142 4.9242 10.9307 4 11.258V4C4 3.46957 4.21071 2.96086 4.58579 2.58579C4.96086 2.21071 5.46957 2 6 2H12ZM13.5 2.5V8C13.5 8.13261 13.5527 8.25979 13.6464 8.35355C13.7402 8.44732 13.8674 8.5 14 8.5H19.5L13.5 2.5ZM9 15.502C9 15.9616 8.90947 16.4168 8.73358 16.8414C8.55769 17.266 8.29988 17.6519 7.97487 17.9769C7.64987 18.3019 7.26403 18.5597 6.83939 18.7356C6.41475 18.9115 5.95963 19.002 5.5 19.002C5.04037 19.002 4.58525 18.9115 4.16061 18.7356C3.73597 18.5597 3.35013 18.3019 3.02513 17.9769C2.70012 17.6519 2.44231 17.266 2.26642 16.8414C2.09053 16.4168 2 15.9616 2 15.502C2 14.5737 2.36875 13.6835 3.02513 13.0271C3.6815 12.3707 4.57174 12.002 5.5 12.002C6.42826 12.002 7.3185 12.3707 7.97487 13.0271C8.63125 13.6835 9 14.5737 9 15.502ZM3 19.244V22.288C2.99982 22.4285 3.04133 22.5659 3.11927 22.6828C3.19721 22.7997 3.30808 22.8908 3.43784 22.9447C3.56761 22.9985 3.71044 23.0127 3.84824 22.9853C3.98605 22.958 4.11264 22.8903 4.212 22.791L5.5 21.503L6.788 22.791C6.88736 22.8903 7.01395 22.958 7.15176 22.9853C7.28956 23.0127 7.43239 22.9985 7.56216 22.9447C7.69192 22.8908 7.80279 22.7997 7.88073 22.6828C7.95867 22.5659 8.00018 22.4285 8 22.288V19.244C7.2605 19.7395 6.39014 20.0034 5.5 20.002C4.60983 20.0035 3.73942 19.7396 3 19.244Z"
    fill="currentColor" />
</svg>